<mxfile host="Electron" agent="Mozilla/5.0 (Windows NT 10.0; Win64; x64) AppleWebKit/537.36 (KHTML, like Gecko) draw.io/27.0.9 Chrome/134.0.6998.205 Electron/35.4.0 Safari/537.36" version="27.0.9" pages="2">
  <diagram name="PÃ¡gina-1" id="-Q6UsqKl0yCYa7LzIoq2">
    <mxGraphModel dx="1332" dy="888" grid="1" gridSize="10" guides="0" tooltips="1" connect="1" arrows="1" fold="1" page="1" pageScale="1" pageWidth="1169" pageHeight="827" background="#FFFFFF" math="0" shadow="1">
      <root>
        <mxCell id="0" />
        <mxCell id="1" parent="0" />
        <mxCell id="M6XfAN4G26K0jh8oakVH-40" value="" style="edgeStyle=orthogonalEdgeStyle;rounded=1;orthogonalLoop=1;jettySize=auto;html=1;" edge="1" parent="1" source="M6XfAN4G26K0jh8oakVH-30" target="M6XfAN4G26K0jh8oakVH-31">
          <mxGeometry relative="1" as="geometry" />
        </mxCell>
        <mxCell id="M6XfAN4G26K0jh8oakVH-30" value="CSV&lt;div&gt;&lt;br&gt;&lt;/div&gt;" style="sketch=0;pointerEvents=1;shadow=0;dashed=0;html=1;strokeColor=none;fillColor=#505050;labelPosition=center;verticalLabelPosition=bottom;verticalAlign=top;outlineConnect=0;align=center;shape=mxgraph.office.users.csv_file;rounded=1;" vertex="1" parent="1">
          <mxGeometry x="20" y="337.5" width="59" height="43" as="geometry" />
        </mxCell>
        <mxCell id="M6XfAN4G26K0jh8oakVH-41" value="" style="edgeStyle=orthogonalEdgeStyle;rounded=1;orthogonalLoop=1;jettySize=auto;html=1;" edge="1" parent="1" source="M6XfAN4G26K0jh8oakVH-31" target="M6XfAN4G26K0jh8oakVH-32">
          <mxGeometry relative="1" as="geometry" />
        </mxCell>
        <mxCell id="M6XfAN4G26K0jh8oakVH-31" value="LAMBDA&lt;div&gt;&lt;br&gt;&lt;/div&gt;" style="sketch=0;points=[[0,0,0],[0.25,0,0],[0.5,0,0],[0.75,0,0],[1,0,0],[0,1,0],[0.25,1,0],[0.5,1,0],[0.75,1,0],[1,1,0],[0,0.25,0],[0,0.5,0],[0,0.75,0],[1,0.25,0],[1,0.5,0],[1,0.75,0]];outlineConnect=0;fontColor=#000000;fillColor=#ED7100;strokeColor=#ffffff;dashed=0;verticalLabelPosition=bottom;verticalAlign=top;align=center;html=1;fontSize=12;fontStyle=0;aspect=fixed;shape=mxgraph.aws4.resourceIcon;resIcon=mxgraph.aws4.lambda;rounded=1;" vertex="1" parent="1">
          <mxGeometry x="160" y="320" width="78" height="78" as="geometry" />
        </mxCell>
        <mxCell id="M6XfAN4G26K0jh8oakVH-42" value="" style="edgeStyle=orthogonalEdgeStyle;rounded=1;orthogonalLoop=1;jettySize=auto;html=1;" edge="1" parent="1" source="M6XfAN4G26K0jh8oakVH-32" target="M6XfAN4G26K0jh8oakVH-34">
          <mxGeometry relative="1" as="geometry">
            <Array as="points">
              <mxPoint x="359" y="279" />
              <mxPoint x="360" y="199" />
            </Array>
          </mxGeometry>
        </mxCell>
        <mxCell id="M6XfAN4G26K0jh8oakVH-32" value="S3&lt;div&gt;&lt;br&gt;&lt;/div&gt;" style="sketch=0;points=[[0,0,0],[0.25,0,0],[0.5,0,0],[0.75,0,0],[1,0,0],[0,1,0],[0.25,1,0],[0.5,1,0],[0.75,1,0],[1,1,0],[0,0.25,0],[0,0.5,0],[0,0.75,0],[1,0.25,0],[1,0.5,0],[1,0.75,0]];outlineConnect=0;fontColor=#000000;fillColor=#7AA116;strokeColor=#ffffff;dashed=0;verticalLabelPosition=bottom;verticalAlign=top;align=center;html=1;fontSize=12;fontStyle=0;aspect=fixed;shape=mxgraph.aws4.resourceIcon;resIcon=mxgraph.aws4.s3;rounded=1;" vertex="1" parent="1">
          <mxGeometry x="320" y="320" width="78" height="78" as="geometry" />
        </mxCell>
        <mxCell id="M6XfAN4G26K0jh8oakVH-33" value="S3" style="sketch=0;points=[[0,0,0],[0.25,0,0],[0.5,0,0],[0.75,0,0],[1,0,0],[0,1,0],[0.25,1,0],[0.5,1,0],[0.75,1,0],[1,1,0],[0,0.25,0],[0,0.5,0],[0,0.75,0],[1,0.25,0],[1,0.5,0],[1,0.75,0]];outlineConnect=0;fontColor=#000000;fillColor=#7AA116;strokeColor=#ffffff;dashed=0;verticalLabelPosition=bottom;verticalAlign=top;align=center;html=1;fontSize=12;fontStyle=0;aspect=fixed;shape=mxgraph.aws4.resourceIcon;resIcon=mxgraph.aws4.s3;rounded=1;" vertex="1" parent="1">
          <mxGeometry x="480" y="320" width="78" height="78" as="geometry" />
        </mxCell>
        <mxCell id="M6XfAN4G26K0jh8oakVH-44" value="" style="edgeStyle=orthogonalEdgeStyle;rounded=1;orthogonalLoop=1;jettySize=auto;html=1;" edge="1" parent="1" source="M6XfAN4G26K0jh8oakVH-34" target="M6XfAN4G26K0jh8oakVH-33">
          <mxGeometry relative="1" as="geometry">
            <Array as="points">
              <mxPoint x="520" y="199" />
            </Array>
          </mxGeometry>
        </mxCell>
        <mxCell id="M6XfAN4G26K0jh8oakVH-34" value="GLUE" style="sketch=0;points=[[0,0,0],[0.25,0,0],[0.5,0,0],[0.75,0,0],[1,0,0],[0,1,0],[0.25,1,0],[0.5,1,0],[0.75,1,0],[1,1,0],[0,0.25,0],[0,0.5,0],[0,0.75,0],[1,0.25,0],[1,0.5,0],[1,0.75,0]];outlineConnect=0;fontColor=#000000;fillColor=#8C4FFF;strokeColor=#ffffff;dashed=0;verticalLabelPosition=bottom;verticalAlign=top;align=center;html=1;fontSize=12;fontStyle=0;aspect=fixed;shape=mxgraph.aws4.resourceIcon;resIcon=mxgraph.aws4.glue;rounded=1;" vertex="1" parent="1">
          <mxGeometry x="402" y="160" width="78" height="78" as="geometry" />
        </mxCell>
        <mxCell id="M6XfAN4G26K0jh8oakVH-35" value="GLUE&lt;div&gt;CATALOG&lt;/div&gt;&lt;div&gt;&lt;br&gt;&lt;/div&gt;" style="sketch=0;outlineConnect=0;fontColor=#000000;gradientColor=none;fillColor=#8C4FFF;strokeColor=none;dashed=0;verticalLabelPosition=bottom;verticalAlign=top;align=center;html=1;fontSize=12;fontStyle=0;aspect=fixed;pointerEvents=1;shape=mxgraph.aws4.glue_data_catalog;rounded=1;" vertex="1" parent="1">
          <mxGeometry x="558" y="40" width="72" height="78" as="geometry" />
        </mxCell>
        <mxCell id="M6XfAN4G26K0jh8oakVH-45" value="" style="edgeStyle=orthogonalEdgeStyle;rounded=1;orthogonalLoop=1;jettySize=auto;html=1;" edge="1" parent="1" source="M6XfAN4G26K0jh8oakVH-36" target="M6XfAN4G26K0jh8oakVH-37">
          <mxGeometry relative="1" as="geometry" />
        </mxCell>
        <mxCell id="M6XfAN4G26K0jh8oakVH-36" value="REDSHIFT" style="sketch=0;points=[[0,0,0],[0.25,0,0],[0.5,0,0],[0.75,0,0],[1,0,0],[0,1,0],[0.25,1,0],[0.5,1,0],[0.75,1,0],[1,1,0],[0,0.25,0],[0,0.5,0],[0,0.75,0],[1,0.25,0],[1,0.5,0],[1,0.75,0]];outlineConnect=0;fontColor=#000000;fillColor=#8C4FFF;strokeColor=#ffffff;dashed=0;verticalLabelPosition=bottom;verticalAlign=top;align=center;html=1;fontSize=12;fontStyle=0;aspect=fixed;shape=mxgraph.aws4.resourceIcon;resIcon=mxgraph.aws4.redshift;rounded=1;" vertex="1" parent="1">
          <mxGeometry x="892" y="200" width="78" height="78" as="geometry" />
        </mxCell>
        <mxCell id="M6XfAN4G26K0jh8oakVH-46" style="edgeStyle=orthogonalEdgeStyle;rounded=1;orthogonalLoop=1;jettySize=auto;html=1;" edge="1" parent="1" source="M6XfAN4G26K0jh8oakVH-37" target="M6XfAN4G26K0jh8oakVH-35">
          <mxGeometry relative="1" as="geometry">
            <Array as="points">
              <mxPoint x="800" y="80" />
            </Array>
          </mxGeometry>
        </mxCell>
        <mxCell id="M6XfAN4G26K0jh8oakVH-37" value="REDSHIFT&lt;div&gt;SPECTRUM&lt;/div&gt;" style="sketch=0;points=[[0,0,0],[0.25,0,0],[0.5,0,0],[0.75,0,0],[1,0,0],[0,1,0],[0.25,1,0],[0.5,1,0],[0.75,1,0],[1,1,0],[0,0.25,0],[0,0.5,0],[0,0.75,0],[1,0.25,0],[1,0.5,0],[1,0.75,0]];outlineConnect=0;fontColor=#000000;fillColor=#C925D1;strokeColor=#ffffff;dashed=0;verticalLabelPosition=bottom;verticalAlign=top;align=center;html=1;fontSize=12;fontStyle=0;aspect=fixed;shape=mxgraph.aws4.resourceIcon;resIcon=mxgraph.aws4.redshift;rounded=1;labelBackgroundColor=none;textShadow=0;" vertex="1" parent="1">
          <mxGeometry x="760" y="200" width="78" height="78" as="geometry" />
        </mxCell>
        <mxCell id="M6XfAN4G26K0jh8oakVH-49" style="edgeStyle=orthogonalEdgeStyle;rounded=1;orthogonalLoop=1;jettySize=auto;html=1;" edge="1" parent="1" source="M6XfAN4G26K0jh8oakVH-39">
          <mxGeometry relative="1" as="geometry">
            <mxPoint x="520" y="400" as="targetPoint" />
          </mxGeometry>
        </mxCell>
        <mxCell id="M6XfAN4G26K0jh8oakVH-50" style="edgeStyle=orthogonalEdgeStyle;rounded=1;orthogonalLoop=1;jettySize=auto;html=1;fontSize=13;" edge="1" parent="1" source="M6XfAN4G26K0jh8oakVH-39" target="M6XfAN4G26K0jh8oakVH-35">
          <mxGeometry relative="1" as="geometry">
            <Array as="points">
              <mxPoint x="760" y="300" />
              <mxPoint x="600" y="300" />
            </Array>
          </mxGeometry>
        </mxCell>
        <mxCell id="M6XfAN4G26K0jh8oakVH-39" value="ATHENA" style="sketch=0;points=[[0,0,0],[0.25,0,0],[0.5,0,0],[0.75,0,0],[1,0,0],[0,1,0],[0.25,1,0],[0.5,1,0],[0.75,1,0],[1,1,0],[0,0.25,0],[0,0.5,0],[0,0.75,0],[1,0.25,0],[1,0.5,0],[1,0.75,0]];outlineConnect=0;fontColor=#000000;fillColor=#8C4FFF;strokeColor=#ffffff;dashed=0;verticalLabelPosition=bottom;verticalAlign=top;align=center;html=1;fontSize=12;fontStyle=0;aspect=fixed;shape=mxgraph.aws4.resourceIcon;resIcon=mxgraph.aws4.athena;rounded=1;" vertex="1" parent="1">
          <mxGeometry x="730" y="480" width="78" height="78" as="geometry" />
        </mxCell>
        <mxCell id="M6XfAN4G26K0jh8oakVH-48" style="edgeStyle=orthogonalEdgeStyle;rounded=1;orthogonalLoop=1;jettySize=auto;html=1;entryX=0.5;entryY=0;entryDx=0;entryDy=0;entryPerimeter=0;" edge="1" parent="1" source="M6XfAN4G26K0jh8oakVH-35" target="M6XfAN4G26K0jh8oakVH-34">
          <mxGeometry relative="1" as="geometry" />
        </mxCell>
        <mxCell id="M6XfAN4G26K0jh8oakVH-51" style="edgeStyle=orthogonalEdgeStyle;rounded=1;orthogonalLoop=1;jettySize=auto;html=1;entryX=1;entryY=0.5;entryDx=0;entryDy=0;entryPerimeter=0;" edge="1" parent="1" source="M6XfAN4G26K0jh8oakVH-37" target="M6XfAN4G26K0jh8oakVH-33">
          <mxGeometry relative="1" as="geometry" />
        </mxCell>
        <mxCell id="ETg9PNRRRcQi_IfOZSUv-2" value="&lt;font style=&quot;font-size: 15px;&quot;&gt;&lt;b style=&quot;&quot;&gt;Produtor&lt;/b&gt;&lt;/font&gt;" style="text;html=1;align=center;verticalAlign=middle;whiteSpace=wrap;rounded=0;" vertex="1" parent="1">
          <mxGeometry x="20" y="430" width="60" height="30" as="geometry" />
        </mxCell>
        <mxCell id="ETg9PNRRRcQi_IfOZSUv-4" value="&lt;font style=&quot;font-size: 15px;&quot;&gt;&lt;b style=&quot;&quot;&gt;Consumidor&lt;/b&gt;&lt;/font&gt;" style="text;html=1;align=center;verticalAlign=middle;whiteSpace=wrap;rounded=0;" vertex="1" parent="1">
          <mxGeometry x="170" y="430" width="60" height="30" as="geometry" />
        </mxCell>
        <mxCell id="ETg9PNRRRcQi_IfOZSUv-7" value="&lt;font style=&quot;font-size: 15px;&quot;&gt;&lt;b&gt;Dados Brutos&lt;/b&gt;&lt;/font&gt;&lt;div&gt;&lt;font style=&quot;font-size: 15px;&quot;&gt;&lt;b&gt;CSV&lt;/b&gt;&lt;/font&gt;&lt;/div&gt;" style="text;html=1;align=center;verticalAlign=middle;whiteSpace=wrap;rounded=0;" vertex="1" parent="1">
          <mxGeometry x="300" y="440" width="120" height="30" as="geometry" />
        </mxCell>
        <mxCell id="ETg9PNRRRcQi_IfOZSUv-8" value="&lt;font style=&quot;font-size: 15px;&quot;&gt;&lt;b&gt;ETL&lt;/b&gt;&lt;/font&gt;" style="text;html=1;align=center;verticalAlign=middle;whiteSpace=wrap;rounded=0;" vertex="1" parent="1">
          <mxGeometry x="410" y="260" width="60" height="30" as="geometry" />
        </mxCell>
        <mxCell id="ETg9PNRRRcQi_IfOZSUv-9" value="&lt;font style=&quot;font-size: 15px;&quot;&gt;&lt;b&gt;Dados Estruturados&lt;/b&gt;&lt;/font&gt;&lt;div&gt;&lt;font style=&quot;font-size: 15px;&quot;&gt;&lt;b&gt;PARQUET&lt;/b&gt;&lt;/font&gt;&lt;/div&gt;" style="text;html=1;align=center;verticalAlign=middle;whiteSpace=wrap;rounded=0;" vertex="1" parent="1">
          <mxGeometry x="450" y="440" width="160" height="30" as="geometry" />
        </mxCell>
      </root>
    </mxGraphModel>
  </diagram>
  <diagram id="eLA0198v7KmdheiLY8Dd" name="PÃ¡gina-2">
    <mxGraphModel dx="866" dy="577" grid="1" gridSize="10" guides="1" tooltips="1" connect="1" arrows="1" fold="1" page="1" pageScale="1" pageWidth="1169" pageHeight="827" math="0" shadow="0">
      <root>
        <mxCell id="0" />
        <mxCell id="1" parent="0" />
      </root>
    </mxGraphModel>
  </diagram>
</mxfile>
